.
..............................Site Info...........................

 -   http://www.scenetime.com  *_*   

SceneTime is going to Close sign up on march/1, hurry up! get in before the doors are closed.

     We care to share . Join us on  http://www.scenetime.com 

    Be the first to get new release at  http://www.scenetime.com

        Seed back for speed


...................................NFO:.................................................[IMG]http://lookpic.com/O/i2/1022/ucOYRm.jpeg[/IMG]

[IMG]http://lookpic.com/O/i2/475/C8snipjc.png[/IMG]

As Johnny Blaze hides out in Eastern Europe, he is called upon to stop the devil, who is trying to take human form
 
http://www.imdb.com/title/tt1071875/

Source: 26k 720P... THX

Format                           : AVI
Format/Info                      : Audio Video Interleave
File size                        : 633 MiB
Duration                         : 1h 28mn
Overall bit rate                 : 1 005 Kbps
Writing library                  : VirtualDub build 33848/release

Video
ID                               : 0
Format                           : MPEG-4 Visual
Format profile                   : Advanced Simple@L5
Format settings, BVOP            : Yes
Format settings, QPel            : No
Format settings, GMC             : No warppoints
Format settings, Matrix          : Default (H.263)
Muxing mode                      : Packed bitstream
Codec ID                         : XVID
Codec ID/Hint                    : XviD
Duration                         : 1h 28mn
Bit rate                         : 801 Kbps
Width                            : 624 pixels
Height                           : 264 pixels
Display aspect ratio             : 2.35:1
Frame rate                       : 29.970 fps
Color space                      : YUV
Chroma subsampling               : 4:2:0
Bit depth                        : 8 bits
Scan type                        : Progressive
Bits/(Pixel*Frame)               : 0.162
Stream size                      : 505 MiB (80%)
Writing library                  : XviD 1.2.1 (UTC 2008-12-04)

Audio
ID                               : 1
Format                           : MPEG Audio
Format version                   : Version 1
Format profile                   : Layer 3
Mode                             : Joint stereo
Mode extension                   : MS Stereo
Codec ID                         : 55
Codec ID/Hint                    : MP3
Duration                         : 1h 28mn
Bit rate mode                    : Constant
Bit rate                         : 192 Kbps
Channel(s)                       : 2 channels
Sampling rate                    : 44.1 KHz
Stream size                      : 121 MiB (19%)
Alignment                        : Split accross interleaves
Interleave, duration             : 33 ms (1.00 video frame)
Interleave, preload duration     : 500 ms
Writing library                  : LAME3.98.2

Workdone:
Fixed perspective, resized, adjusted levels, brightness, contrast, saturation and HQ smoother.

Audio: Denoised it, audio enhancements and lowered the overall volume.

[IMG]http://lookpic.com/O/i2/1618/24LW54w.png[/IMG]

[IMG]http://lookpic.com/O/i2/1042/mFcRMvXr.jpeg[/IMG]
[IMG]http://lookpic.com/O/i2/1245/ly4og6s.jpeg[/IMG]
[IMG]http://lookpic.com/O/i2/634/bSYR6ud6.jpeg[/IMG]
[IMG]http://lookpic.com/O/i2/816/F2bsynh3.jpeg[/IMG]
[IMG]http://lookpic.com/O/i2/1049/EZxFcx7r.jpeg[/IMG]
[IMG]http://lookpic.com/O/i2/392/6kXaD21Z.jpeg[/IMG]